<mxfile host="app.diagrams.net" agent="Mozilla/5.0 (Macintosh; Intel Mac OS X 10_15_7) AppleWebKit/537.36 (KHTML, like Gecko) Chrome/129.0.0.0 Safari/537.36" version="24.7.14">
  <diagram name="Page-1" id="5vX20tcKVtbhAXsmYMWp">
    <mxGraphModel grid="0" page="0" gridSize="10" guides="1" tooltips="0" connect="1" arrows="1" fold="1" pageScale="1" pageWidth="827" pageHeight="1169" background="none" math="0" shadow="0">
      <root>
        <mxCell id="0" />
        <mxCell id="1" parent="0" />
        <mxCell id="gqFFQJpjHVuSxzh3-dwc-1" value="" style="group" connectable="0" vertex="1" parent="1">
          <mxGeometry x="-462" y="-1386" width="80" height="80" as="geometry" />
        </mxCell>
        <mxCell id="gqFFQJpjHVuSxzh3-dwc-2" value="" style="rounded=0;whiteSpace=wrap;html=1;fillColor=none;strokeColor=none;container=0;" vertex="1" parent="gqFFQJpjHVuSxzh3-dwc-1">
          <mxGeometry width="80" height="60" as="geometry" />
        </mxCell>
        <mxCell id="gqFFQJpjHVuSxzh3-dwc-3" value="" style="rounded=1;whiteSpace=wrap;html=1;strokeColor=#e6e6e6;strokeWidth=1;shadow=0;glass=0;perimeterSpacing=0;fillStyle=auto;gradientColor=#f7f7f7;container=0;fillColor=#ffffff;" vertex="1" parent="gqFFQJpjHVuSxzh3-dwc-1">
          <mxGeometry width="80" height="80" as="geometry" />
        </mxCell>
        <mxCell id="gqFFQJpjHVuSxzh3-dwc-4" value="&lt;p style=&quot;line-height: 100%; font-size: 10px;&quot;&gt;&lt;b style=&quot;font-size: 10px;&quot;&gt;&lt;font face=&quot;Tahoma&quot; style=&quot;font-size: 10px;&quot;&gt;API Gateway&lt;/font&gt;&lt;/b&gt;&lt;/p&gt;" style="html=1;rounded=1;strokeColor=#ff9442;arcSize=50;fillColor=#FF7814;fontColor=#FFFFFF;glass=0;textOpacity=95;container=0;spacing=2;fontSize=10;" vertex="1" parent="gqFFQJpjHVuSxzh3-dwc-1">
          <mxGeometry y="60" width="80" height="20" as="geometry" />
        </mxCell>
        <mxCell id="gqFFQJpjHVuSxzh3-dwc-5" value="" style="outlineConnect=0;dashed=0;verticalLabelPosition=bottom;verticalAlign=top;align=center;html=1;shape=mxgraph.aws3.api_gateway;fillColor=#D9A741;gradientColor=none;container=0;" vertex="1" parent="gqFFQJpjHVuSxzh3-dwc-1">
          <mxGeometry x="23.55000000000001" y="10" width="32.9" height="40" as="geometry" />
        </mxCell>
        <mxCell id="gqFFQJpjHVuSxzh3-dwc-7" value="" style="group" connectable="0" vertex="1" parent="1">
          <mxGeometry x="-202" y="-1416" width="80" height="80" as="geometry" />
        </mxCell>
        <mxCell id="gqFFQJpjHVuSxzh3-dwc-8" value="" style="rounded=0;whiteSpace=wrap;html=1;fillColor=none;strokeColor=none;container=0;" vertex="1" parent="gqFFQJpjHVuSxzh3-dwc-7">
          <mxGeometry width="80" height="60" as="geometry" />
        </mxCell>
        <mxCell id="gqFFQJpjHVuSxzh3-dwc-9" value="" style="rounded=1;whiteSpace=wrap;html=1;strokeColor=#e6e6e6;strokeWidth=1;shadow=0;glass=0;perimeterSpacing=0;fillStyle=auto;gradientColor=#f7f7f7;container=0;fillColor=#ffffff;" vertex="1" parent="gqFFQJpjHVuSxzh3-dwc-7">
          <mxGeometry width="80" height="80" as="geometry" />
        </mxCell>
        <mxCell id="gqFFQJpjHVuSxzh3-dwc-10" value="&lt;p style=&quot;line-height: 100%; font-size: 10px;&quot;&gt;&lt;b style=&quot;font-size: 10px;&quot;&gt;&lt;font face=&quot;Tahoma&quot; style=&quot;font-size: 10px;&quot;&gt;Lambda&lt;/font&gt;&lt;/b&gt;&lt;/p&gt;" style="whiteSpace=wrap;html=1;rounded=1;strokeColor=#ff9442;arcSize=50;fillColor=#FF7814;fontColor=#FFFFFF;glass=0;textOpacity=95;container=0;fontSize=10;" vertex="1" parent="gqFFQJpjHVuSxzh3-dwc-7">
          <mxGeometry y="60" width="80" height="20" as="geometry" />
        </mxCell>
        <mxCell id="gqFFQJpjHVuSxzh3-dwc-11" value="" style="outlineConnect=0;dashed=0;verticalLabelPosition=bottom;verticalAlign=top;align=center;html=1;shape=mxgraph.aws3.lambda;fillColor=#F58534;gradientColor=none;container=0;" vertex="1" parent="gqFFQJpjHVuSxzh3-dwc-7">
          <mxGeometry x="23.55000000000001" y="10" width="32.9" height="40" as="geometry" />
        </mxCell>
        <mxCell id="gqFFQJpjHVuSxzh3-dwc-13" value="" style="group" connectable="0" vertex="1" parent="1">
          <mxGeometry x="-202" y="-1206" width="80" height="80" as="geometry" />
        </mxCell>
        <mxCell id="gqFFQJpjHVuSxzh3-dwc-14" value="" style="rounded=0;whiteSpace=wrap;html=1;fillColor=none;strokeColor=none;container=0;" vertex="1" parent="gqFFQJpjHVuSxzh3-dwc-13">
          <mxGeometry width="80" height="60" as="geometry" />
        </mxCell>
        <mxCell id="gqFFQJpjHVuSxzh3-dwc-15" value="" style="rounded=1;whiteSpace=wrap;html=1;strokeColor=#e6e6e6;strokeWidth=1;shadow=0;glass=0;perimeterSpacing=0;fillStyle=auto;gradientColor=#f7f7f7;container=0;fillColor=#ffffff;" vertex="1" parent="gqFFQJpjHVuSxzh3-dwc-13">
          <mxGeometry width="80" height="80" as="geometry" />
        </mxCell>
        <mxCell id="gqFFQJpjHVuSxzh3-dwc-16" value="&lt;p style=&quot;line-height: 100%; font-size: 10px;&quot;&gt;&lt;b style=&quot;font-size: 10px;&quot;&gt;&lt;font face=&quot;Tahoma&quot; style=&quot;font-size: 10px;&quot;&gt;Lambda&lt;/font&gt;&lt;/b&gt;&lt;/p&gt;" style="whiteSpace=wrap;html=1;rounded=1;strokeColor=#ff9442;arcSize=50;fillColor=#FF7814;fontColor=#FFFFFF;glass=0;textOpacity=95;container=0;fontSize=10;" vertex="1" parent="gqFFQJpjHVuSxzh3-dwc-13">
          <mxGeometry y="60" width="80" height="20" as="geometry" />
        </mxCell>
        <mxCell id="gqFFQJpjHVuSxzh3-dwc-17" value="" style="outlineConnect=0;dashed=0;verticalLabelPosition=bottom;verticalAlign=top;align=center;html=1;shape=mxgraph.aws3.lambda;fillColor=#F58534;gradientColor=none;container=0;" vertex="1" parent="gqFFQJpjHVuSxzh3-dwc-13">
          <mxGeometry x="23.55000000000001" y="10" width="32.9" height="40" as="geometry" />
        </mxCell>
        <object label="" id="gqFFQJpjHVuSxzh3-dwc-18">
          <mxCell style="group" connectable="0" vertex="1" parent="1">
            <mxGeometry x="-202" y="-1526" width="80" height="80" as="geometry" />
          </mxCell>
        </object>
        <mxCell id="gqFFQJpjHVuSxzh3-dwc-19" value="" style="rounded=0;whiteSpace=wrap;html=1;fillColor=none;strokeColor=none;container=0;" vertex="1" parent="gqFFQJpjHVuSxzh3-dwc-18">
          <mxGeometry width="80" height="60" as="geometry" />
        </mxCell>
        <mxCell id="gqFFQJpjHVuSxzh3-dwc-20" value="" style="rounded=1;whiteSpace=wrap;html=1;strokeColor=#e6e6e6;strokeWidth=1;shadow=0;glass=0;perimeterSpacing=0;fillStyle=auto;gradientColor=#f7f7f7;container=0;fillColor=#ffffff;" vertex="1" parent="gqFFQJpjHVuSxzh3-dwc-18">
          <mxGeometry width="80" height="80" as="geometry" />
        </mxCell>
        <mxCell id="gqFFQJpjHVuSxzh3-dwc-21" value="&lt;p style=&quot;line-height: 100%; font-size: 10px;&quot;&gt;&lt;b style=&quot;font-size: 10px;&quot;&gt;&lt;font face=&quot;Tahoma&quot; style=&quot;font-size: 10px;&quot;&gt;Lambda&lt;/font&gt;&lt;/b&gt;&lt;/p&gt;" style="whiteSpace=wrap;html=1;rounded=1;strokeColor=#ff9442;arcSize=50;fillColor=#FF7814;fontColor=#FFFFFF;glass=0;textOpacity=95;container=0;fontSize=10;" vertex="1" parent="gqFFQJpjHVuSxzh3-dwc-18">
          <mxGeometry y="60" width="80" height="20" as="geometry" />
        </mxCell>
        <mxCell id="gqFFQJpjHVuSxzh3-dwc-22" value="" style="outlineConnect=0;dashed=0;verticalLabelPosition=bottom;verticalAlign=top;align=center;html=1;shape=mxgraph.aws3.lambda;fillColor=#F58534;gradientColor=none;container=0;" vertex="1" parent="gqFFQJpjHVuSxzh3-dwc-18">
          <mxGeometry x="23.55000000000001" y="10" width="32.9" height="40" as="geometry" />
        </mxCell>
        <mxCell id="gqFFQJpjHVuSxzh3-dwc-23" value="" style="group" connectable="0" vertex="1" parent="1">
          <mxGeometry x="-202" y="-1316" width="80" height="80" as="geometry" />
        </mxCell>
        <mxCell id="gqFFQJpjHVuSxzh3-dwc-24" value="" style="rounded=0;whiteSpace=wrap;html=1;fillColor=none;strokeColor=none;container=0;" vertex="1" parent="gqFFQJpjHVuSxzh3-dwc-23">
          <mxGeometry width="80" height="60" as="geometry" />
        </mxCell>
        <mxCell id="gqFFQJpjHVuSxzh3-dwc-25" value="" style="rounded=1;whiteSpace=wrap;html=1;strokeColor=#e6e6e6;strokeWidth=1;shadow=0;glass=0;perimeterSpacing=0;fillStyle=auto;gradientColor=#f7f7f7;container=0;fillColor=#ffffff;" vertex="1" parent="gqFFQJpjHVuSxzh3-dwc-23">
          <mxGeometry width="80" height="80" as="geometry" />
        </mxCell>
        <mxCell id="gqFFQJpjHVuSxzh3-dwc-26" value="&lt;p style=&quot;line-height: 100%; font-size: 10px;&quot;&gt;&lt;b style=&quot;font-size: 10px;&quot;&gt;&lt;font face=&quot;Tahoma&quot; style=&quot;font-size: 10px;&quot;&gt;Lambda&lt;/font&gt;&lt;/b&gt;&lt;/p&gt;" style="whiteSpace=wrap;html=1;rounded=1;strokeColor=#ff9442;arcSize=50;fillColor=#FF7814;fontColor=#FFFFFF;glass=0;textOpacity=95;container=0;fontSize=10;" vertex="1" parent="gqFFQJpjHVuSxzh3-dwc-23">
          <mxGeometry y="60" width="80" height="20" as="geometry" />
        </mxCell>
        <mxCell id="gqFFQJpjHVuSxzh3-dwc-27" value="" style="outlineConnect=0;dashed=0;verticalLabelPosition=bottom;verticalAlign=top;align=center;html=1;shape=mxgraph.aws3.lambda;fillColor=#F58534;gradientColor=none;container=0;" vertex="1" parent="gqFFQJpjHVuSxzh3-dwc-23">
          <mxGeometry x="23.55000000000001" y="10" width="32.9" height="40" as="geometry" />
        </mxCell>
        <mxCell id="gqFFQJpjHVuSxzh3-dwc-30" value="" style="group" connectable="0" vertex="1" parent="1">
          <mxGeometry x="188" y="-1371" width="80" height="80" as="geometry" />
        </mxCell>
        <mxCell id="gqFFQJpjHVuSxzh3-dwc-31" value="" style="rounded=0;whiteSpace=wrap;html=1;fillColor=none;strokeColor=none;container=0;" vertex="1" parent="gqFFQJpjHVuSxzh3-dwc-30">
          <mxGeometry width="80" height="60" as="geometry" />
        </mxCell>
        <mxCell id="gqFFQJpjHVuSxzh3-dwc-32" value="" style="rounded=1;whiteSpace=wrap;html=1;strokeColor=#e6e6e6;strokeWidth=1;shadow=0;glass=0;perimeterSpacing=0;fillStyle=auto;gradientColor=#f7f7f7;container=0;fillColor=#ffffff;" vertex="1" parent="gqFFQJpjHVuSxzh3-dwc-30">
          <mxGeometry width="80" height="80" as="geometry" />
        </mxCell>
        <mxCell id="gqFFQJpjHVuSxzh3-dwc-33" value="&lt;p style=&quot;line-height: 100%; font-size: 10px;&quot;&gt;&lt;b style=&quot;font-size: 10px;&quot;&gt;&lt;font face=&quot;Tahoma&quot; style=&quot;font-size: 10px;&quot;&gt;DynamoDB&lt;/font&gt;&lt;/b&gt;&lt;/p&gt;" style="html=1;rounded=1;strokeColor=#ff9442;arcSize=50;fillColor=#FF7814;fontColor=#FFFFFF;glass=0;textOpacity=95;container=0;spacing=2;fontSize=10;" vertex="1" parent="gqFFQJpjHVuSxzh3-dwc-30">
          <mxGeometry y="60" width="80" height="20" as="geometry" />
        </mxCell>
        <mxCell id="gqFFQJpjHVuSxzh3-dwc-34" value="" style="outlineConnect=0;dashed=0;verticalLabelPosition=bottom;verticalAlign=top;align=center;html=1;shape=mxgraph.aws3.dynamo_db;fillColor=#2E73B8;gradientColor=none;container=0;" vertex="1" parent="gqFFQJpjHVuSxzh3-dwc-30">
          <mxGeometry x="22.22" y="10" width="35.56" height="40" as="geometry" />
        </mxCell>
        <mxCell id="gqFFQJpjHVuSxzh3-dwc-35" value="" style="group" connectable="0" vertex="1" parent="1">
          <mxGeometry x="188" y="-1496" width="80" height="80" as="geometry" />
        </mxCell>
        <mxCell id="gqFFQJpjHVuSxzh3-dwc-36" value="" style="rounded=0;whiteSpace=wrap;html=1;fillColor=none;strokeColor=none;container=0;" vertex="1" parent="gqFFQJpjHVuSxzh3-dwc-35">
          <mxGeometry width="80" height="60" as="geometry" />
        </mxCell>
        <mxCell id="gqFFQJpjHVuSxzh3-dwc-37" value="" style="rounded=1;whiteSpace=wrap;html=1;strokeColor=#e6e6e6;strokeWidth=1;shadow=0;glass=0;perimeterSpacing=0;fillStyle=auto;gradientColor=#f7f7f7;container=0;fillColor=#ffffff;" vertex="1" parent="gqFFQJpjHVuSxzh3-dwc-35">
          <mxGeometry width="80" height="80" as="geometry" />
        </mxCell>
        <mxCell id="gqFFQJpjHVuSxzh3-dwc-38" value="&lt;p style=&quot;line-height: 100%; font-size: 10px;&quot;&gt;&lt;b style=&quot;font-size: 10px;&quot;&gt;&lt;font face=&quot;Tahoma&quot; style=&quot;font-size: 10px;&quot;&gt;DynamoDB&lt;/font&gt;&lt;/b&gt;&lt;/p&gt;" style="html=1;rounded=1;strokeColor=#ff9442;arcSize=50;fillColor=#FF7814;fontColor=#FFFFFF;glass=0;textOpacity=95;container=0;spacing=2;fontSize=10;" vertex="1" parent="gqFFQJpjHVuSxzh3-dwc-35">
          <mxGeometry y="60" width="80" height="20" as="geometry" />
        </mxCell>
        <mxCell id="gqFFQJpjHVuSxzh3-dwc-39" value="" style="outlineConnect=0;dashed=0;verticalLabelPosition=bottom;verticalAlign=top;align=center;html=1;shape=mxgraph.aws3.dynamo_db;fillColor=#2E73B8;gradientColor=none;container=0;" vertex="1" parent="gqFFQJpjHVuSxzh3-dwc-35">
          <mxGeometry x="22.22" y="10" width="35.56" height="40" as="geometry" />
        </mxCell>
        <mxCell id="gqFFQJpjHVuSxzh3-dwc-42" value="" style="group" connectable="0" vertex="1" parent="1">
          <mxGeometry x="-202" y="-1766" width="80" height="80" as="geometry" />
        </mxCell>
        <mxCell id="gqFFQJpjHVuSxzh3-dwc-43" value="" style="rounded=0;whiteSpace=wrap;html=1;fillColor=none;strokeColor=none;container=0;" vertex="1" parent="gqFFQJpjHVuSxzh3-dwc-42">
          <mxGeometry width="80" height="60" as="geometry" />
        </mxCell>
        <mxCell id="gqFFQJpjHVuSxzh3-dwc-44" value="" style="rounded=1;whiteSpace=wrap;html=1;strokeColor=#e6e6e6;strokeWidth=1;shadow=0;glass=0;perimeterSpacing=0;fillStyle=auto;gradientColor=#f7f7f7;container=0;fillColor=#FFFFFF;" vertex="1" parent="gqFFQJpjHVuSxzh3-dwc-42">
          <mxGeometry width="80" height="80" as="geometry" />
        </mxCell>
        <mxCell id="gqFFQJpjHVuSxzh3-dwc-45" value="&lt;p style=&quot;line-height: 100%; font-size: 10px;&quot;&gt;&lt;b style=&quot;font-size: 10px;&quot;&gt;&lt;font face=&quot;Tahoma&quot; style=&quot;font-size: 10px;&quot;&gt;S3&lt;/font&gt;&lt;/b&gt;&lt;/p&gt;" style="whiteSpace=wrap;html=1;rounded=1;strokeColor=#ff9442;arcSize=50;fillColor=#FF7814;fontColor=#FFFFFF;glass=0;textOpacity=95;container=0;fontSize=10;" vertex="1" parent="gqFFQJpjHVuSxzh3-dwc-42">
          <mxGeometry y="60" width="80" height="20" as="geometry" />
        </mxCell>
        <mxCell id="gqFFQJpjHVuSxzh3-dwc-46" value="" style="outlineConnect=0;dashed=0;verticalLabelPosition=bottom;verticalAlign=top;align=center;html=1;shape=mxgraph.aws3.s3;fillColor=#E05243;gradientColor=none;shadow=0;container=0;" vertex="1" parent="gqFFQJpjHVuSxzh3-dwc-42">
          <mxGeometry x="24.269999999999996" y="10.879999999999995" width="31.45" height="38.23" as="geometry" />
        </mxCell>
        <mxCell id="gqFFQJpjHVuSxzh3-dwc-47" value="" style="group" connectable="0" vertex="1" parent="1">
          <mxGeometry x="-482" y="-1756" width="80" height="80" as="geometry" />
        </mxCell>
        <mxCell id="gqFFQJpjHVuSxzh3-dwc-48" value="" style="rounded=0;whiteSpace=wrap;html=1;fillColor=none;strokeColor=none;container=0;" vertex="1" parent="gqFFQJpjHVuSxzh3-dwc-47">
          <mxGeometry width="80" height="60" as="geometry" />
        </mxCell>
        <mxCell id="gqFFQJpjHVuSxzh3-dwc-49" value="" style="rounded=1;whiteSpace=wrap;html=1;strokeColor=#e6e6e6;strokeWidth=1;shadow=0;glass=0;perimeterSpacing=0;fillStyle=auto;gradientColor=#f7f7f7;container=0;fillColor=#ffffff;" vertex="1" parent="gqFFQJpjHVuSxzh3-dwc-47">
          <mxGeometry width="80" height="80" as="geometry" />
        </mxCell>
        <mxCell id="gqFFQJpjHVuSxzh3-dwc-50" value="&lt;p style=&quot;line-height: 100%; font-size: 10px;&quot;&gt;&lt;b style=&quot;font-size: 10px;&quot;&gt;&lt;font face=&quot;Tahoma&quot; style=&quot;font-size: 10px;&quot;&gt;CloudFront&lt;/font&gt;&lt;/b&gt;&lt;/p&gt;" style="html=1;rounded=1;strokeColor=#ff9442;arcSize=50;fillColor=#FF7814;fontColor=#FFFFFF;glass=0;textOpacity=95;container=0;spacing=2;fontSize=10;" vertex="1" parent="gqFFQJpjHVuSxzh3-dwc-47">
          <mxGeometry y="60" width="80" height="20" as="geometry" />
        </mxCell>
        <mxCell id="gqFFQJpjHVuSxzh3-dwc-51" value="" style="outlineConnect=0;dashed=0;verticalLabelPosition=bottom;verticalAlign=top;align=center;html=1;shape=mxgraph.aws3.cloudfront;fillColor=#F58536;gradientColor=none;container=0;" vertex="1" parent="gqFFQJpjHVuSxzh3-dwc-47">
          <mxGeometry x="23.55000000000001" y="10" width="32.9" height="40" as="geometry" />
        </mxCell>
        <mxCell id="gqFFQJpjHVuSxzh3-dwc-52" value="" style="sketch=0;points=[[0,0,0],[0.25,0,0],[0.5,0,0],[0.75,0,0],[1,0,0],[0,1,0],[0.25,1,0],[0.5,1,0],[0.75,1,0],[1,1,0],[0,0.25,0],[0,0.5,0],[0,0.75,0],[1,0.25,0],[1,0.5,0],[1,0.75,0]];outlineConnect=0;fontColor=#232F3E;fillColor=#ED7100;strokeColor=#ffffff;dashed=0;verticalLabelPosition=bottom;verticalAlign=top;align=center;html=1;fontSize=12;fontStyle=0;aspect=fixed;shape=mxgraph.aws4.resourceIcon;resIcon=mxgraph.aws4.elastic_beanstalk;" vertex="1" parent="1">
          <mxGeometry x="-710.51" y="-1482" width="111" height="111" as="geometry" />
        </mxCell>
        <mxCell id="gqFFQJpjHVuSxzh3-dwc-54" value="" style="outlineConnect=0;dashed=0;verticalLabelPosition=bottom;verticalAlign=top;align=center;html=1;shape=mxgraph.aws3.ec2;fillColor=#F58534;gradientColor=none;" vertex="1" parent="1">
          <mxGeometry x="-713.01" y="-1351" width="50" height="60" as="geometry" />
        </mxCell>
        <mxCell id="gqFFQJpjHVuSxzh3-dwc-55" value="" style="sketch=0;points=[[0,0,0],[0.25,0,0],[0.5,0,0],[0.75,0,0],[1,0,0],[0,1,0],[0.25,1,0],[0.5,1,0],[0.75,1,0],[1,1,0],[0,0.25,0],[0,0.5,0],[0,0.75,0],[1,0.25,0],[1,0.5,0],[1,0.75,0]];outlineConnect=0;fontColor=#232F3E;fillColor=#ED7100;strokeColor=#ffffff;dashed=0;verticalLabelPosition=bottom;verticalAlign=top;align=center;html=1;fontSize=12;fontStyle=0;aspect=fixed;shape=mxgraph.aws4.resourceIcon;resIcon=mxgraph.aws4.ecs_anywhere;" vertex="1" parent="1">
          <mxGeometry x="-652.01" y="-1351" width="60" height="60" as="geometry" />
        </mxCell>
        <mxCell id="gqFFQJpjHVuSxzh3-dwc-56" value="" style="group" connectable="0" vertex="1" parent="1">
          <mxGeometry x="-713.01" y="-1261" width="50" height="50" as="geometry" />
        </mxCell>
        <mxCell id="gqFFQJpjHVuSxzh3-dwc-57" value="" style="rounded=0;whiteSpace=wrap;html=1;fillColor=none;strokeColor=none;container=0;" vertex="1" parent="gqFFQJpjHVuSxzh3-dwc-56">
          <mxGeometry width="50" height="37.5" as="geometry" />
        </mxCell>
        <mxCell id="gqFFQJpjHVuSxzh3-dwc-58" value="" style="rounded=1;whiteSpace=wrap;html=1;strokeColor=#e6e6e6;strokeWidth=1;shadow=0;glass=0;perimeterSpacing=0;fillStyle=auto;gradientColor=#f7f7f7;container=0;fillColor=#ffffff;" vertex="1" parent="gqFFQJpjHVuSxzh3-dwc-56">
          <mxGeometry width="50" height="50" as="geometry" />
        </mxCell>
        <mxCell id="gqFFQJpjHVuSxzh3-dwc-59" value="&lt;p style=&quot;line-height: 100%; font-size: 10px;&quot;&gt;&lt;b style=&quot;font-size: 10px;&quot;&gt;&lt;font face=&quot;Tahoma&quot; style=&quot;font-size: 10px;&quot;&gt;NodeJS&lt;/font&gt;&lt;/b&gt;&lt;/p&gt;" style="html=1;rounded=1;strokeColor=#00CC00;arcSize=50;fillColor=#009900;fontColor=#FFFFFF;glass=0;textOpacity=95;container=0;spacing=2;fontSize=10;" vertex="1" parent="gqFFQJpjHVuSxzh3-dwc-56">
          <mxGeometry y="37.5" width="50" height="12.5" as="geometry" />
        </mxCell>
        <mxCell id="gqFFQJpjHVuSxzh3-dwc-60" value="" style="outlineConnect=0;dashed=0;verticalLabelPosition=bottom;verticalAlign=top;align=center;html=1;shape=mxgraph.aws3.android;fillColor=#8CC64F;gradientColor=none;container=0;" vertex="1" parent="gqFFQJpjHVuSxzh3-dwc-56">
          <mxGeometry x="13.512500000000003" y="5.625" width="22.96875" height="26.25" as="geometry" />
        </mxCell>
        <mxCell id="gqFFQJpjHVuSxzh3-dwc-71" value="" style="group" connectable="0" vertex="1" parent="1">
          <mxGeometry x="-652.01" y="-1261" width="60" height="50" as="geometry" />
        </mxCell>
        <mxCell id="gqFFQJpjHVuSxzh3-dwc-72" value="" style="rounded=0;whiteSpace=wrap;html=1;fillColor=none;strokeColor=none;container=0;" vertex="1" parent="gqFFQJpjHVuSxzh3-dwc-71">
          <mxGeometry width="60" height="37.5" as="geometry" />
        </mxCell>
        <mxCell id="gqFFQJpjHVuSxzh3-dwc-73" value="" style="rounded=1;whiteSpace=wrap;html=1;strokeColor=#e6e6e6;strokeWidth=1;shadow=0;glass=0;perimeterSpacing=0;fillStyle=auto;gradientColor=#f7f7f7;container=0;fillColor=#ffffff;" vertex="1" parent="gqFFQJpjHVuSxzh3-dwc-71">
          <mxGeometry width="60" height="50" as="geometry" />
        </mxCell>
        <mxCell id="gqFFQJpjHVuSxzh3-dwc-74" value="&lt;p style=&quot;line-height: 100%; font-size: 10px;&quot;&gt;&lt;b style=&quot;font-size: 10px;&quot;&gt;&lt;font face=&quot;Tahoma&quot; style=&quot;font-size: 10px;&quot;&gt;React&lt;/font&gt;&lt;/b&gt;&lt;/p&gt;" style="html=1;rounded=1;strokeColor=#00CC00;arcSize=50;fillColor=#009900;fontColor=#FFFFFF;glass=0;textOpacity=95;container=0;spacing=2;fontSize=10;" vertex="1" parent="gqFFQJpjHVuSxzh3-dwc-71">
          <mxGeometry y="37.5" width="60" height="12.5" as="geometry" />
        </mxCell>
        <mxCell id="gqFFQJpjHVuSxzh3-dwc-75" value="" style="shape=image;html=1;verticalAlign=top;verticalLabelPosition=bottom;labelBackgroundColor=#ffffff;imageAspect=0;aspect=fixed;image=https://cdn1.iconfinder.com/data/icons/unicons-line-vol-5/24/react-128.png" vertex="1" parent="gqFFQJpjHVuSxzh3-dwc-71">
          <mxGeometry x="11.25" y="6.25" width="31.25" height="31.25" as="geometry" />
        </mxCell>
        <mxCell id="gqFFQJpjHVuSxzh3-dwc-77" value="" style="group" connectable="0" vertex="1" parent="1">
          <mxGeometry x="-952" y="-1426" width="80" height="80" as="geometry" />
        </mxCell>
        <mxCell id="gqFFQJpjHVuSxzh3-dwc-78" value="" style="rounded=0;whiteSpace=wrap;html=1;fillColor=none;strokeColor=none;container=0;" vertex="1" parent="gqFFQJpjHVuSxzh3-dwc-77">
          <mxGeometry width="80" height="60" as="geometry" />
        </mxCell>
        <mxCell id="gqFFQJpjHVuSxzh3-dwc-79" value="" style="rounded=1;whiteSpace=wrap;html=1;strokeColor=#e6e6e6;strokeWidth=1;shadow=0;glass=0;perimeterSpacing=0;fillStyle=auto;gradientColor=#f7f7f7;container=0;fillColor=#ffffff;" vertex="1" parent="gqFFQJpjHVuSxzh3-dwc-77">
          <mxGeometry width="80" height="80" as="geometry" />
        </mxCell>
        <mxCell id="gqFFQJpjHVuSxzh3-dwc-80" value="&lt;p style=&quot;line-height: 100%; font-size: 10px;&quot;&gt;&lt;b style=&quot;font-size: 10px;&quot;&gt;&lt;font face=&quot;Tahoma&quot; style=&quot;font-size: 10px;&quot;&gt;Client&lt;/font&gt;&lt;/b&gt;&lt;/p&gt;" style="html=1;rounded=1;strokeColor=#7196f0;arcSize=50;fillColor=#5480e8;fontColor=#FFFFFF;glass=0;textOpacity=95;container=0;spacing=2;fontSize=10;" vertex="1" parent="gqFFQJpjHVuSxzh3-dwc-77">
          <mxGeometry y="60" width="80" height="20" as="geometry" />
        </mxCell>
        <mxCell id="gqFFQJpjHVuSxzh3-dwc-81" value="" style="sketch=0;pointerEvents=1;shadow=0;dashed=0;html=1;strokeColor=none;fillColor=#505050;labelPosition=center;verticalLabelPosition=bottom;verticalAlign=top;outlineConnect=0;align=center;shape=mxgraph.office.devices.mac_client;opacity=60;container=0;" vertex="1" parent="gqFFQJpjHVuSxzh3-dwc-77">
          <mxGeometry x="15.840000000000003" y="13" width="48.33" height="40" as="geometry" />
        </mxCell>
        <mxCell id="gqFFQJpjHVuSxzh3-dwc-82" value="&lt;p style=&quot;line-height: 100%; font-size: 10px;&quot;&gt;&lt;b style=&quot;font-size: 10px;&quot;&gt;&lt;font face=&quot;Tahoma&quot; style=&quot;font-size: 10px;&quot;&gt;Elastic Beanstalk&lt;/font&gt;&lt;/b&gt;&lt;/p&gt;" style="html=1;rounded=1;strokeColor=#ff9442;arcSize=50;fillColor=#FF7814;fontColor=#FFFFFF;glass=0;textOpacity=95;container=0;spacing=2;fontSize=10;" vertex="1" parent="1">
          <mxGeometry x="-697.01" y="-1391" width="84" height="20" as="geometry" />
        </mxCell>
        <mxCell id="gqFFQJpjHVuSxzh3-dwc-83" value="&lt;p style=&quot;line-height: 100%; font-size: 10px;&quot;&gt;&lt;b style=&quot;font-size: 10px;&quot;&gt;&lt;font face=&quot;Tahoma&quot; style=&quot;font-size: 10px;&quot;&gt;EC2&lt;/font&gt;&lt;/b&gt;&lt;/p&gt;" style="whiteSpace=wrap;html=1;rounded=1;strokeColor=#ff9442;arcSize=50;fillColor=#FF7814;fontColor=#FFFFFF;glass=0;textOpacity=95;container=0;fontSize=10;" vertex="1" parent="1">
          <mxGeometry x="-722.01" y="-1301" width="59" height="20" as="geometry" />
        </mxCell>
        <mxCell id="gqFFQJpjHVuSxzh3-dwc-85" value="&lt;p style=&quot;line-height: 100%; font-size: 10px;&quot;&gt;&lt;b style=&quot;font-size: 10px;&quot;&gt;&lt;font face=&quot;Tahoma&quot; style=&quot;font-size: 10px;&quot;&gt;ECS&lt;/font&gt;&lt;/b&gt;&lt;/p&gt;" style="whiteSpace=wrap;html=1;rounded=1;strokeColor=#ff9442;arcSize=50;fillColor=#FF7814;fontColor=#FFFFFF;glass=0;textOpacity=95;container=0;fontSize=10;" vertex="1" parent="1">
          <mxGeometry x="-651.01" y="-1301" width="59" height="20" as="geometry" />
        </mxCell>
        <mxCell id="gqFFQJpjHVuSxzh3-dwc-87" value="" style="swimlane;startSize=0;" vertex="1" parent="1">
          <mxGeometry x="-742" y="-1500" width="160" height="309" as="geometry" />
        </mxCell>
        <mxCell id="gqFFQJpjHVuSxzh3-dwc-89" value="&lt;h1 style=&quot;margin-top: 0px;&quot;&gt;Web App&lt;/h1&gt;&lt;p&gt;&lt;br&gt;&lt;/p&gt;" style="text;html=1;whiteSpace=wrap;overflow=hidden;rounded=0;" vertex="1" parent="1">
          <mxGeometry x="-730.01" y="-1550" width="150" height="40" as="geometry" />
        </mxCell>
        <UserObject label="User" placeholders="1" name="Variable" id="gqFFQJpjHVuSxzh3-dwc-90">
          <mxCell style="text;html=1;strokeColor=none;fillColor=none;align=center;verticalAlign=middle;whiteSpace=wrap;overflow=hidden;" vertex="1" parent="1">
            <mxGeometry x="178" y="-1416" width="80" height="20" as="geometry" />
          </mxCell>
        </UserObject>
        <UserObject label="Subject" placeholders="1" name="Variable" id="gqFFQJpjHVuSxzh3-dwc-91">
          <mxCell style="text;html=1;strokeColor=none;fillColor=none;align=center;verticalAlign=middle;whiteSpace=wrap;overflow=hidden;" vertex="1" parent="1">
            <mxGeometry x="188" y="-1286" width="80" height="20" as="geometry" />
          </mxCell>
        </UserObject>
        <UserObject label="Register" placeholders="1" name="Variable" id="gqFFQJpjHVuSxzh3-dwc-101">
          <mxCell style="text;html=1;strokeColor=none;fillColor=none;align=center;verticalAlign=middle;whiteSpace=wrap;overflow=hidden;" vertex="1" parent="1">
            <mxGeometry x="-132" y="-1496" width="80" height="20" as="geometry" />
          </mxCell>
        </UserObject>
        <UserObject label="Upload user profile image&lt;div&gt;Then get cloudFrond public url&lt;/div&gt;" placeholders="1" name="Variable" id="gqFFQJpjHVuSxzh3-dwc-102">
          <mxCell style="text;html=1;strokeColor=none;fillColor=none;align=center;verticalAlign=middle;whiteSpace=wrap;overflow=hidden;" vertex="1" parent="1">
            <mxGeometry x="-162.01" y="-1616" width="150.01" height="60" as="geometry" />
          </mxCell>
        </UserObject>
        <mxCell id="gqFFQJpjHVuSxzh3-dwc-105" value="" style="endArrow=classic;html=1;rounded=0;entryX=0;entryY=0.75;entryDx=0;entryDy=0;" edge="1" parent="1" source="gqFFQJpjHVuSxzh3-dwc-49" target="gqFFQJpjHVuSxzh3-dwc-43">
          <mxGeometry width="50" height="50" relative="1" as="geometry">
            <mxPoint x="-322" y="-1596" as="sourcePoint" />
            <mxPoint x="-272" y="-1646" as="targetPoint" />
          </mxGeometry>
        </mxCell>
        <mxCell id="gqFFQJpjHVuSxzh3-dwc-107" value="" style="endArrow=classic;html=1;rounded=0;exitX=0.5;exitY=0;exitDx=0;exitDy=0;" edge="1" parent="1" source="gqFFQJpjHVuSxzh3-dwc-20" target="gqFFQJpjHVuSxzh3-dwc-45">
          <mxGeometry width="50" height="50" relative="1" as="geometry">
            <mxPoint x="-212" y="-1616" as="sourcePoint" />
            <mxPoint x="-162" y="-1666" as="targetPoint" />
          </mxGeometry>
        </mxCell>
        <mxCell id="gqFFQJpjHVuSxzh3-dwc-108" value="" style="endArrow=classic;html=1;rounded=0;exitX=1.005;exitY=0.344;exitDx=0;exitDy=0;exitPerimeter=0;entryX=0.5;entryY=1;entryDx=0;entryDy=0;" edge="1" parent="1" source="gqFFQJpjHVuSxzh3-dwc-87" target="gqFFQJpjHVuSxzh3-dwc-50">
          <mxGeometry width="50" height="50" relative="1" as="geometry">
            <mxPoint x="-272" y="-1436" as="sourcePoint" />
            <mxPoint x="-222" y="-1486" as="targetPoint" />
            <Array as="points" />
          </mxGeometry>
        </mxCell>
        <UserObject label="Login" placeholders="1" name="Variable" id="gqFFQJpjHVuSxzh3-dwc-110">
          <mxCell style="text;html=1;strokeColor=none;fillColor=none;align=center;verticalAlign=middle;whiteSpace=wrap;overflow=hidden;" vertex="1" parent="1">
            <mxGeometry x="-127.00999999999999" y="-1386" width="80" height="20" as="geometry" />
          </mxCell>
        </UserObject>
        <mxCell id="gqFFQJpjHVuSxzh3-dwc-111" value="" style="endArrow=classic;html=1;rounded=0;exitX=1;exitY=0.75;exitDx=0;exitDy=0;" edge="1" parent="1" source="gqFFQJpjHVuSxzh3-dwc-20" target="gqFFQJpjHVuSxzh3-dwc-37">
          <mxGeometry width="50" height="50" relative="1" as="geometry">
            <mxPoint x="-2" y="-1416" as="sourcePoint" />
            <mxPoint x="48" y="-1466" as="targetPoint" />
          </mxGeometry>
        </mxCell>
        <mxCell id="gqFFQJpjHVuSxzh3-dwc-112" value="" style="endArrow=classic;html=1;rounded=0;exitX=1;exitY=0.5;exitDx=0;exitDy=0;entryX=-0.033;entryY=0.615;entryDx=0;entryDy=0;entryPerimeter=0;" edge="1" parent="1" source="gqFFQJpjHVuSxzh3-dwc-9" target="gqFFQJpjHVuSxzh3-dwc-37">
          <mxGeometry width="50" height="50" relative="1" as="geometry">
            <mxPoint x="-142" y="-1456" as="sourcePoint" />
            <mxPoint x="58" y="-1456" as="targetPoint" />
          </mxGeometry>
        </mxCell>
        <mxCell id="gqFFQJpjHVuSxzh3-dwc-113" value="" style="group" connectable="0" vertex="1" parent="1">
          <mxGeometry x="188" y="-1246" width="80" height="80" as="geometry" />
        </mxCell>
        <mxCell id="gqFFQJpjHVuSxzh3-dwc-114" value="" style="rounded=0;whiteSpace=wrap;html=1;fillColor=none;strokeColor=none;container=0;" vertex="1" parent="gqFFQJpjHVuSxzh3-dwc-113">
          <mxGeometry width="80" height="60" as="geometry" />
        </mxCell>
        <mxCell id="gqFFQJpjHVuSxzh3-dwc-115" value="" style="rounded=1;whiteSpace=wrap;html=1;strokeColor=#e6e6e6;strokeWidth=1;shadow=0;glass=0;perimeterSpacing=0;fillStyle=auto;gradientColor=#f7f7f7;container=0;fillColor=#ffffff;" vertex="1" parent="gqFFQJpjHVuSxzh3-dwc-113">
          <mxGeometry width="80" height="80" as="geometry" />
        </mxCell>
        <mxCell id="gqFFQJpjHVuSxzh3-dwc-116" value="&lt;p style=&quot;line-height: 100%; font-size: 10px;&quot;&gt;&lt;b style=&quot;font-size: 10px;&quot;&gt;&lt;font face=&quot;Tahoma&quot; style=&quot;font-size: 10px;&quot;&gt;DynamoDB&lt;/font&gt;&lt;/b&gt;&lt;/p&gt;" style="html=1;rounded=1;strokeColor=#ff9442;arcSize=50;fillColor=#FF7814;fontColor=#FFFFFF;glass=0;textOpacity=95;container=0;spacing=2;fontSize=10;" vertex="1" parent="gqFFQJpjHVuSxzh3-dwc-113">
          <mxGeometry y="60" width="80" height="20" as="geometry" />
        </mxCell>
        <mxCell id="gqFFQJpjHVuSxzh3-dwc-117" value="" style="outlineConnect=0;dashed=0;verticalLabelPosition=bottom;verticalAlign=top;align=center;html=1;shape=mxgraph.aws3.dynamo_db;fillColor=#2E73B8;gradientColor=none;container=0;" vertex="1" parent="gqFFQJpjHVuSxzh3-dwc-113">
          <mxGeometry x="22.22" y="10" width="35.56" height="40" as="geometry" />
        </mxCell>
        <UserObject label="Pairing" placeholders="1" name="Variable" id="gqFFQJpjHVuSxzh3-dwc-118">
          <mxCell style="text;html=1;strokeColor=none;fillColor=none;align=center;verticalAlign=middle;whiteSpace=wrap;overflow=hidden;" vertex="1" parent="1">
            <mxGeometry x="188" y="-1166" width="80" height="20" as="geometry" />
          </mxCell>
        </UserObject>
        <mxCell id="gqFFQJpjHVuSxzh3-dwc-119" value="" style="endArrow=classic;html=1;rounded=0;entryX=0;entryY=0.625;entryDx=0;entryDy=0;entryPerimeter=0;" edge="1" parent="1" source="gqFFQJpjHVuSxzh3-dwc-25" target="gqFFQJpjHVuSxzh3-dwc-37">
          <mxGeometry width="50" height="50" relative="1" as="geometry">
            <mxPoint x="-155.5" y="-1276" as="sourcePoint" />
            <mxPoint x="41.5" y="-1357" as="targetPoint" />
          </mxGeometry>
        </mxCell>
        <mxCell id="gqFFQJpjHVuSxzh3-dwc-120" value="" style="endArrow=classic;html=1;rounded=0;entryX=0.043;entryY=0.618;entryDx=0;entryDy=0;entryPerimeter=0;" edge="1" parent="1" source="gqFFQJpjHVuSxzh3-dwc-25" target="gqFFQJpjHVuSxzh3-dwc-32">
          <mxGeometry width="50" height="50" relative="1" as="geometry">
            <mxPoint x="-152" y="-1276" as="sourcePoint" />
            <mxPoint x="58" y="-1446" as="targetPoint" />
          </mxGeometry>
        </mxCell>
        <UserObject label="Search" placeholders="1" name="Variable" id="gqFFQJpjHVuSxzh3-dwc-122">
          <mxCell style="text;html=1;strokeColor=none;fillColor=none;align=center;verticalAlign=middle;whiteSpace=wrap;overflow=hidden;" vertex="1" parent="1">
            <mxGeometry x="-122" y="-1286" width="80" height="20" as="geometry" />
          </mxCell>
        </UserObject>
        <mxCell id="gqFFQJpjHVuSxzh3-dwc-123" value="" style="endArrow=classic;html=1;rounded=0;" edge="1" parent="1" target="gqFFQJpjHVuSxzh3-dwc-115">
          <mxGeometry width="50" height="50" relative="1" as="geometry">
            <mxPoint x="-152" y="-1162" as="sourcePoint" />
            <mxPoint x="48" y="-1216" as="targetPoint" />
          </mxGeometry>
        </mxCell>
        <UserObject label="Recomend" placeholders="1" name="Variable" id="gqFFQJpjHVuSxzh3-dwc-124">
          <mxCell style="text;html=1;strokeColor=none;fillColor=none;align=center;verticalAlign=middle;whiteSpace=wrap;overflow=hidden;" vertex="1" parent="1">
            <mxGeometry x="-122" y="-1166" width="80" height="20" as="geometry" />
          </mxCell>
        </UserObject>
        <mxCell id="gqFFQJpjHVuSxzh3-dwc-125" value="" style="endArrow=classic;html=1;rounded=0;exitX=1.002;exitY=0.404;exitDx=0;exitDy=0;exitPerimeter=0;entryX=0;entryY=0.5;entryDx=0;entryDy=0;" edge="1" parent="1" source="gqFFQJpjHVuSxzh3-dwc-87" target="gqFFQJpjHVuSxzh3-dwc-3">
          <mxGeometry width="50" height="50" relative="1" as="geometry">
            <mxPoint x="-392" y="-1376" as="sourcePoint" />
            <mxPoint x="-342" y="-1426" as="targetPoint" />
          </mxGeometry>
        </mxCell>
        <mxCell id="gqFFQJpjHVuSxzh3-dwc-126" value="" style="endArrow=classic;html=1;rounded=0;exitX=0.581;exitY=0.007;exitDx=0;exitDy=0;exitPerimeter=0;" edge="1" parent="1" source="gqFFQJpjHVuSxzh3-dwc-3" target="gqFFQJpjHVuSxzh3-dwc-20">
          <mxGeometry width="50" height="50" relative="1" as="geometry">
            <mxPoint x="-392" y="-1376" as="sourcePoint" />
            <mxPoint x="-342" y="-1426" as="targetPoint" />
          </mxGeometry>
        </mxCell>
        <mxCell id="gqFFQJpjHVuSxzh3-dwc-127" value="" style="endArrow=classic;html=1;rounded=0;exitX=0.994;exitY=0.365;exitDx=0;exitDy=0;exitPerimeter=0;" edge="1" parent="1" source="gqFFQJpjHVuSxzh3-dwc-3" target="gqFFQJpjHVuSxzh3-dwc-9">
          <mxGeometry width="50" height="50" relative="1" as="geometry">
            <mxPoint x="-306" y="-1355" as="sourcePoint" />
            <mxPoint x="-222" y="-1437" as="targetPoint" />
          </mxGeometry>
        </mxCell>
        <mxCell id="gqFFQJpjHVuSxzh3-dwc-128" value="" style="endArrow=classic;html=1;rounded=0;entryX=0.021;entryY=0.371;entryDx=0;entryDy=0;entryPerimeter=0;" edge="1" parent="1" source="gqFFQJpjHVuSxzh3-dwc-3" target="gqFFQJpjHVuSxzh3-dwc-25">
          <mxGeometry width="50" height="50" relative="1" as="geometry">
            <mxPoint x="-272" y="-1327" as="sourcePoint" />
            <mxPoint x="-222" y="-1349" as="targetPoint" />
          </mxGeometry>
        </mxCell>
        <mxCell id="gqFFQJpjHVuSxzh3-dwc-129" value="" style="endArrow=classic;html=1;rounded=0;" edge="1" parent="1" source="gqFFQJpjHVuSxzh3-dwc-3" target="gqFFQJpjHVuSxzh3-dwc-15">
          <mxGeometry width="50" height="50" relative="1" as="geometry">
            <mxPoint x="-262" y="-1276" as="sourcePoint" />
            <mxPoint x="-220" y="-1276" as="targetPoint" />
          </mxGeometry>
        </mxCell>
        <UserObject label="User profile images / website static content images" placeholders="1" name="Variable" id="gqFFQJpjHVuSxzh3-dwc-132">
          <mxCell style="text;html=1;strokeColor=none;fillColor=none;align=center;verticalAlign=middle;whiteSpace=wrap;overflow=hidden;" vertex="1" parent="1">
            <mxGeometry x="-522" y="-1816" width="150.01" height="60" as="geometry" />
          </mxCell>
        </UserObject>
        <mxCell id="gqFFQJpjHVuSxzh3-dwc-133" value="" style="sketch=0;outlineConnect=0;fontColor=#232F3E;gradientColor=none;fillColor=#E7157B;strokeColor=none;dashed=0;verticalLabelPosition=bottom;verticalAlign=top;align=center;html=1;fontSize=12;fontStyle=0;aspect=fixed;pointerEvents=1;shape=mxgraph.aws4.eventbridge_scheduler;" vertex="1" parent="1">
          <mxGeometry x="374.75" y="-1726" width="78" height="78" as="geometry" />
        </mxCell>
        <mxCell id="gqFFQJpjHVuSxzh3-dwc-134" value="&lt;p style=&quot;line-height: 100%; font-size: 10px;&quot;&gt;&lt;b style=&quot;font-size: 10px;&quot;&gt;&lt;font face=&quot;Tahoma&quot; style=&quot;font-size: 10px;&quot;&gt;Event Bridge Sceduler&lt;/font&gt;&lt;/b&gt;&lt;/p&gt;" style="html=1;rounded=1;strokeColor=#ff9442;arcSize=50;fillColor=#FF7814;fontColor=#FFFFFF;glass=0;textOpacity=95;container=0;spacing=2;fontSize=10;" vertex="1" parent="1">
          <mxGeometry x="362.40999999999997" y="-1648" width="129.99" height="20" as="geometry" />
        </mxCell>
        <mxCell id="gqFFQJpjHVuSxzh3-dwc-137" value="" style="image;aspect=fixed;html=1;points=[];align=center;fontSize=12;image=img/lib/azure2/analytics/Analysis_Services.svg;" vertex="1" parent="1">
          <mxGeometry x="393" y="-1526" width="63" height="48" as="geometry" />
        </mxCell>
        <mxCell id="gqFFQJpjHVuSxzh3-dwc-138" value="&lt;p style=&quot;line-height: 100%; font-size: 10px;&quot;&gt;&lt;b style=&quot;font-size: 10px;&quot;&gt;&lt;font face=&quot;Tahoma&quot; style=&quot;font-size: 10px;&quot;&gt;Analysis Service&lt;/font&gt;&lt;/b&gt;&lt;/p&gt;" style="html=1;rounded=1;strokeColor=#ff9442;arcSize=50;fillColor=#FF7814;fontColor=#FFFFFF;glass=0;textOpacity=95;container=0;spacing=2;fontSize=10;" vertex="1" parent="1">
          <mxGeometry x="368.01" y="-1478" width="129.99" height="20" as="geometry" />
        </mxCell>
        <mxCell id="gqFFQJpjHVuSxzh3-dwc-139" value="" style="endArrow=classic;html=1;rounded=0;exitX=0.453;exitY=0.914;exitDx=0;exitDy=0;exitPerimeter=0;" edge="1" parent="1" source="gqFFQJpjHVuSxzh3-dwc-134" target="gqFFQJpjHVuSxzh3-dwc-137">
          <mxGeometry width="50" height="50" relative="1" as="geometry">
            <mxPoint x="493.72" y="-1606" as="sourcePoint" />
            <mxPoint x="543.72" y="-1656" as="targetPoint" />
          </mxGeometry>
        </mxCell>
        <mxCell id="gqFFQJpjHVuSxzh3-dwc-140" value="" style="endArrow=classic;html=1;rounded=0;exitX=0.459;exitY=1.005;exitDx=0;exitDy=0;exitPerimeter=0;entryX=1;entryY=0.5;entryDx=0;entryDy=0;" edge="1" parent="1" source="gqFFQJpjHVuSxzh3-dwc-138" target="gqFFQJpjHVuSxzh3-dwc-115">
          <mxGeometry width="50" height="50" relative="1" as="geometry">
            <mxPoint x="498" y="-1341" as="sourcePoint" />
            <mxPoint x="428" y="-1196" as="targetPoint" />
            <Array as="points">
              <mxPoint x="428" y="-1206" />
            </Array>
          </mxGeometry>
        </mxCell>
        <UserObject label="Save result to Pairing table" placeholders="1" name="Variable" id="gqFFQJpjHVuSxzh3-dwc-141">
          <mxCell style="text;html=1;strokeColor=none;fillColor=none;align=center;verticalAlign=middle;whiteSpace=wrap;overflow=hidden;" vertex="1" parent="1">
            <mxGeometry x="438" y="-1376" width="150.01" height="60" as="geometry" />
          </mxCell>
        </UserObject>
        <UserObject label="Trigger the analysis server every half hour" placeholders="1" name="Variable" id="gqFFQJpjHVuSxzh3-dwc-142">
          <mxCell style="text;html=1;strokeColor=none;fillColor=none;align=center;verticalAlign=middle;whiteSpace=wrap;overflow=hidden;" vertex="1" parent="1">
            <mxGeometry x="428" y="-1596" width="150.01" height="60" as="geometry" />
          </mxCell>
        </UserObject>
        <mxCell id="gqFFQJpjHVuSxzh3-dwc-144" value="" style="endArrow=classic;html=1;rounded=0;exitX=1.002;exitY=0.404;exitDx=0;exitDy=0;exitPerimeter=0;entryX=0.015;entryY=0.378;entryDx=0;entryDy=0;entryPerimeter=0;" edge="1" parent="1" target="gqFFQJpjHVuSxzh3-dwc-87">
          <mxGeometry width="50" height="50" relative="1" as="geometry">
            <mxPoint x="-872" y="-1386" as="sourcePoint" />
            <mxPoint x="-762" y="-1356" as="targetPoint" />
          </mxGeometry>
        </mxCell>
        <mxCell id="gqFFQJpjHVuSxzh3-dwc-145" value="" style="sketch=0;points=[[0,0,0],[0.25,0,0],[0.5,0,0],[0.75,0,0],[1,0,0],[0,1,0],[0.25,1,0],[0.5,1,0],[0.75,1,0],[1,1,0],[0,0.25,0],[0,0.5,0],[0,0.75,0],[1,0.25,0],[1,0.5,0],[1,0.75,0]];points=[[0,0,0],[0.25,0,0],[0.5,0,0],[0.75,0,0],[1,0,0],[0,1,0],[0.25,1,0],[0.5,1,0],[0.75,1,0],[1,1,0],[0,0.25,0],[0,0.5,0],[0,0.75,0],[1,0.25,0],[1,0.5,0],[1,0.75,0]];outlineConnect=0;fontColor=#232F3E;fillColor=#E7157B;strokeColor=#ffffff;dashed=0;verticalLabelPosition=bottom;verticalAlign=top;align=center;html=1;fontSize=12;fontStyle=0;aspect=fixed;shape=mxgraph.aws4.resourceIcon;resIcon=mxgraph.aws4.chatbot;" vertex="1" parent="1">
          <mxGeometry x="-466.01" y="-1116" width="78" height="78" as="geometry" />
        </mxCell>
        <mxCell id="gqFFQJpjHVuSxzh3-dwc-148" value="" style="endArrow=classic;html=1;rounded=0;exitX=1;exitY=0.412;exitDx=0;exitDy=0;exitPerimeter=0;" edge="1" parent="1" source="gqFFQJpjHVuSxzh3-dwc-87" target="gqFFQJpjHVuSxzh3-dwc-145">
          <mxGeometry width="50" height="50" relative="1" as="geometry">
            <mxPoint x="-492" y="-1196" as="sourcePoint" />
            <mxPoint x="-442" y="-1246" as="targetPoint" />
          </mxGeometry>
        </mxCell>
        <UserObject label="External ChatBot Api to get Feedback" placeholders="1" name="Variable" id="gqFFQJpjHVuSxzh3-dwc-149">
          <mxCell style="text;html=1;strokeColor=none;fillColor=none;align=center;verticalAlign=middle;whiteSpace=wrap;overflow=hidden;" vertex="1" parent="1">
            <mxGeometry x="-492.01" y="-1046" width="150.01" height="60" as="geometry" />
          </mxCell>
        </UserObject>
        <mxCell id="gqFFQJpjHVuSxzh3-dwc-167" value="" style="swimlane;startSize=0;" vertex="1" parent="1">
          <mxGeometry x="-237" y="-980" width="215" height="111" as="geometry" />
        </mxCell>
        <mxCell id="gqFFQJpjHVuSxzh3-dwc-165" value="" style="outlineConnect=0;dashed=0;verticalLabelPosition=bottom;verticalAlign=top;align=center;html=1;shape=mxgraph.aws3.cloudwatch;fillColor=#759C3E;gradientColor=none;" vertex="1" parent="gqFFQJpjHVuSxzh3-dwc-167">
          <mxGeometry x="38" y="24" width="46.5" height="45" as="geometry" />
        </mxCell>
        <mxCell id="gqFFQJpjHVuSxzh3-dwc-168" value="" style="sketch=0;points=[[0,0,0],[0.25,0,0],[0.5,0,0],[0.75,0,0],[1,0,0],[0,1,0],[0.25,1,0],[0.5,1,0],[0.75,1,0],[1,1,0],[0,0.25,0],[0,0.5,0],[0,0.75,0],[1,0.25,0],[1,0.5,0],[1,0.75,0]];outlineConnect=0;fontColor=#232F3E;fillColor=#C925D1;strokeColor=#ffffff;dashed=0;verticalLabelPosition=bottom;verticalAlign=top;align=center;html=1;fontSize=12;fontStyle=0;aspect=fixed;shape=mxgraph.aws4.resourceIcon;resIcon=mxgraph.aws4.xray;" vertex="1" parent="gqFFQJpjHVuSxzh3-dwc-167">
          <mxGeometry x="125" y="25" width="43" height="43" as="geometry" />
        </mxCell>
        <mxCell id="gqFFQJpjHVuSxzh3-dwc-172" value="&lt;p style=&quot;line-height: 100%; font-size: 10px;&quot;&gt;&lt;b style=&quot;font-size: 10px;&quot;&gt;&lt;font face=&quot;Tahoma&quot; style=&quot;font-size: 10px;&quot;&gt;CloudWatch&lt;/font&gt;&lt;/b&gt;&lt;/p&gt;" style="html=1;rounded=1;strokeColor=#ff9442;arcSize=50;fillColor=#FF7814;fontColor=#FFFFFF;glass=0;textOpacity=95;container=0;spacing=2;fontSize=10;" vertex="1" parent="gqFFQJpjHVuSxzh3-dwc-167">
          <mxGeometry x="21.25" y="71" width="80" height="20" as="geometry" />
        </mxCell>
        <mxCell id="gqFFQJpjHVuSxzh3-dwc-174" value="&lt;p style=&quot;line-height: 100%; font-size: 10px;&quot;&gt;&lt;b style=&quot;font-size: 10px;&quot;&gt;&lt;font face=&quot;Tahoma&quot; style=&quot;font-size: 10px;&quot;&gt;x-ray&lt;/font&gt;&lt;/b&gt;&lt;/p&gt;" style="html=1;rounded=1;strokeColor=#ff9442;arcSize=0;fillColor=#FF7814;fontColor=#FFFFFF;glass=0;textOpacity=95;container=0;spacing=2;fontSize=10;" vertex="1" parent="gqFFQJpjHVuSxzh3-dwc-167">
          <mxGeometry x="114" y="69" width="80" height="20" as="geometry" />
        </mxCell>
        <mxCell id="gqFFQJpjHVuSxzh3-dwc-169" value="&lt;h1 style=&quot;margin-top: 0px;&quot;&gt;Debug &amp;amp; Health Monitoring&lt;/h1&gt;" style="text;html=1;whiteSpace=wrap;overflow=hidden;rounded=0;" vertex="1" parent="gqFFQJpjHVuSxzh3-dwc-167">
          <mxGeometry x="-51" y="-48" width="371.5" height="48" as="geometry" />
        </mxCell>
        <mxCell id="gqFFQJpjHVuSxzh3-dwc-175" value="" style="endArrow=none;dashed=1;html=1;rounded=0;entryX=0.5;entryY=1;entryDx=0;entryDy=0;exitX=0.348;exitY=0.014;exitDx=0;exitDy=0;exitPerimeter=0;" edge="1" parent="1" source="gqFFQJpjHVuSxzh3-dwc-169" target="gqFFQJpjHVuSxzh3-dwc-16">
          <mxGeometry width="50" height="50" relative="1" as="geometry">
            <mxPoint x="-292" y="-1121" as="sourcePoint" />
            <mxPoint x="-242" y="-1171" as="targetPoint" />
          </mxGeometry>
        </mxCell>
      </root>
    </mxGraphModel>
  </diagram>
</mxfile>
